<svg id="Camada_1" data-name="Camada 1" xmlns="http://www.w3.org/2000/svg" viewBox="0 0 755 180"><defs><style>.cls-1{fill:#fff;}</style></defs><title>logov1</title><path class="cls-1" d="M41.87,113.9H10.46v-97h32.4q14.27,0,24.49,5.81A38.66,38.66,0,0,1,83.06,39.3q5.47,10.83,5.47,25.94T83,91.3a38.92,38.92,0,0,1-15.94,16.75Q56.65,113.9,41.87,113.9ZM25.1,101.11h16q11.09,0,18.43-4.2a26.06,26.06,0,0,0,11-12.17q3.64-8,3.65-19.5T70.51,45.87A25.86,25.86,0,0,0,59.73,33.79Q52.58,29.67,42,29.66H25.1Z"/><path class="cls-1" d="M110.09,113.9H94.55l34.92-97h16.91l34.92,97H165.76L138.33,34.5h-.76Zm2.61-38h50.4V88.22H112.7Z"/><path class="cls-1" d="M178.93,29.47V16.87H254v12.6H223.75V113.9h-14.6V29.47Z"/><path class="cls-1" d="M267.19,113.9H251.65l34.91-97h16.92l34.91,97H322.85L295.42,34.5h-.75Zm2.6-38H320.2V88.22H269.79Z"/><path class="cls-1" d="M352.37,16.87h17.77L401,92.29h1.14l30.89-75.42h17.77v97H436.89V43.69H436l-28.62,70.07H395.81L367.2,43.64h-.9V113.9H352.37Z"/><path class="cls-1" d="M556.42,65.38q0,15.56-5.69,26.7a41.57,41.57,0,0,1-15.56,17.15,45.08,45.08,0,0,1-44.91,0,41.52,41.52,0,0,1-15.57-17.17Q469,80.87,469,65.38t5.68-26.69a41.59,41.59,0,0,1,15.57-17.15,45.08,45.08,0,0,1,44.91,0,41.63,41.63,0,0,1,15.56,17.15Q556.42,49.85,556.42,65.38Zm-14.5,0q0-11.83-3.81-20A28.4,28.4,0,0,0,527.68,33.1a28.78,28.78,0,0,0-29.91,0,28.34,28.34,0,0,0-10.4,12.32q-3.83,8.11-3.82,20t3.82,20a28.34,28.34,0,0,0,10.4,12.32,28.73,28.73,0,0,0,29.91,0,28.4,28.4,0,0,0,10.43-12.32Q541.92,77.24,541.92,65.38Z"/><path class="cls-1" d="M627.53,42.36a13.93,13.93,0,0,0-6.26-10.45q-5.49-3.7-13.83-3.71a26,26,0,0,0-10.33,1.87,16,16,0,0,0-6.75,5.11A12.15,12.15,0,0,0,588,42.55a10.68,10.68,0,0,0,1.63,6,13.92,13.92,0,0,0,4.31,4.19,30.1,30.1,0,0,0,5.76,2.8,60.57,60.57,0,0,0,5.92,1.82l9.48,2.46a72,72,0,0,1,9.52,3.09,38.27,38.27,0,0,1,9,5.11,24.78,24.78,0,0,1,6.75,7.87A22.91,22.91,0,0,1,643,87.08a25.84,25.84,0,0,1-4.24,14.64,28.58,28.58,0,0,1-12.27,10.09q-8,3.7-19.4,3.7a47,47,0,0,1-18.85-3.46,28.88,28.88,0,0,1-12.46-9.83,28.26,28.26,0,0,1-5-15.14h14.69a14.8,14.8,0,0,0,3.43,8.74,17.91,17.91,0,0,0,7.72,5.17A30.71,30.71,0,0,0,607,102.67a29.12,29.12,0,0,0,11.06-2,18.2,18.2,0,0,0,7.65-5.49,12.94,12.94,0,0,0,2.79-8.27A10.23,10.23,0,0,0,626,79.88a18.58,18.58,0,0,0-6.58-4.55,65.57,65.57,0,0,0-9.36-3.17L598.63,69Q587,65.87,580.17,59.7t-6.79-16.3a24.24,24.24,0,0,1,4.54-14.64A30.07,30.07,0,0,1,590.24,19a42.43,42.43,0,0,1,17.53-3.48A41.52,41.52,0,0,1,625.18,19a29.54,29.54,0,0,1,11.92,9.5,24.12,24.12,0,0,1,4.54,13.86Z"/><path class="cls-1" d="M660.45,113.9v-97h14.64V59h48.37V16.87h14.69v97H723.46V71.59H675.09V113.9Z"/><path class="cls-1" d="M598.59,169.76V143.39h3v4.05h.27a6.53,6.53,0,0,1,2.64-3.22,8,8,0,0,1,4.44-1.18,7.48,7.48,0,0,1,4.49,1.28,7.7,7.7,0,0,1,2.63,3.51h.22a7.37,7.37,0,0,1,2.92-3.49,8.8,8.8,0,0,1,4.9-1.3,7.5,7.5,0,0,1,5.8,2.31q2.13,2.31,2.13,6.74v17.67H629V152.09a6.32,6.32,0,0,0-1.59-4.69,5.78,5.78,0,0,0-4.21-1.56,5.85,5.85,0,0,0-4.65,1.86,6.83,6.83,0,0,0-1.63,4.7v17.36h-3.13V151.82a6.22,6.22,0,0,0-1.49-4.33,5.4,5.4,0,0,0-4.21-1.65,6.17,6.17,0,0,0-3.27.89,6.34,6.34,0,0,0-2.29,2.49,7.79,7.79,0,0,0-.83,3.65v16.89Z"/><path class="cls-1" d="M640.12,169.76V143.39h3.07v26.37Zm.13-30,4.4-7.8h3.62l-5.27,7.8Z"/><path class="cls-1" d="M660.79,170.31a9.57,9.57,0,0,1-5.68-1.72,11.25,11.25,0,0,1-3.81-4.79,19.45,19.45,0,0,1,0-14.29,11.24,11.24,0,0,1,3.82-4.78,9.77,9.77,0,0,1,5.72-1.7,8.4,8.4,0,0,1,4,.85,7.55,7.55,0,0,1,2.56,2.1,12.58,12.58,0,0,1,1.5,2.44h.27V134.59h3.07v35.17h-3v-4.89h-.36a11.92,11.92,0,0,1-1.52,2.46,7.9,7.9,0,0,1-2.58,2.12A8.35,8.35,0,0,1,660.79,170.31Zm.36-2.8a6.84,6.84,0,0,0,4.36-1.4,8.79,8.79,0,0,0,2.76-3.86,15.72,15.72,0,0,0,1-5.66,15.34,15.34,0,0,0-.94-5.59,8.59,8.59,0,0,0-2.75-3.81,7.66,7.66,0,0,0-8.84.05,8.92,8.92,0,0,0-2.74,3.87,15.07,15.07,0,0,0-.94,5.48,15.46,15.46,0,0,0,1,5.55,9,9,0,0,0,2.75,3.92A6.87,6.87,0,0,0,661.15,167.51Z"/><path class="cls-1" d="M682.55,138.85a2.25,2.25,0,0,1-1.61-.64,2.12,2.12,0,0,1,0-3.11,2.36,2.36,0,0,1,3.23,0,2.12,2.12,0,0,1,0,3.11A2.26,2.26,0,0,1,682.55,138.85ZM681,169.76V143.39h3.08v26.37Z"/><path class="cls-1" d="M699.53,170.36a10.08,10.08,0,0,1-4.36-.93,7.49,7.49,0,0,1-3.14-2.72,7.66,7.66,0,0,1-1.17-4.32,6.64,6.64,0,0,1,.74-3.29,6,6,0,0,1,2.09-2.2,12.08,12.08,0,0,1,3.21-1.36,29.8,29.8,0,0,1,4.09-.77l3.75-.48a6.89,6.89,0,0,0,2.35-.65,1.54,1.54,0,0,0,.8-1.44v-.62a5.62,5.62,0,0,0-1.6-4.25,6.35,6.35,0,0,0-4.61-1.56A7.93,7.93,0,0,0,697,147a6.86,6.86,0,0,0-2.51,2.95l-2.91-1a8.68,8.68,0,0,1,2.48-3.46,9.93,9.93,0,0,1,3.53-1.87,14.17,14.17,0,0,1,4-.57,13.57,13.57,0,0,1,3.15.39,9,9,0,0,1,3,1.37,7,7,0,0,1,2.28,2.69,9.55,9.55,0,0,1,.88,4.37v17.91h-3.06v-4.17h-.19a8.29,8.29,0,0,1-1.63,2.27,8.44,8.44,0,0,1-2.71,1.8A9.59,9.59,0,0,1,699.53,170.36Zm.41-2.8a8,8,0,0,0,4.23-1.08,7.43,7.43,0,0,0,2.75-2.87,8.18,8.18,0,0,0,1-4v-3.81a3.14,3.14,0,0,1-1.14.58,17,17,0,0,1-1.84.46q-1,.19-2.07.33l-1.85.24a16.82,16.82,0,0,0-3.81.86,5.49,5.49,0,0,0-2.42,1.6,4,4,0,0,0-.84,2.62,4.41,4.41,0,0,0,1.71,3.72A6.87,6.87,0,0,0,699.94,167.56Z"/><path class="cls-1" d="M736.79,149.17,734,150a7.27,7.27,0,0,0-1.16-2.14,5.4,5.4,0,0,0-2-1.53,7,7,0,0,0-3-.57,7.16,7.16,0,0,0-4.39,1.27,3.9,3.9,0,0,0-1.72,3.28,3.52,3.52,0,0,0,1.18,2.76,8.53,8.53,0,0,0,3.63,1.67l4,1a9.87,9.87,0,0,1,5,2.56,6.12,6.12,0,0,1,1.66,4.39,6.62,6.62,0,0,1-1.24,4,8.12,8.12,0,0,1-3.44,2.72,12.36,12.36,0,0,1-5.11,1,10.93,10.93,0,0,1-6.37-1.74,7.87,7.87,0,0,1-3.21-5l2.94-.72a5.87,5.87,0,0,0,2.22,3.55,7.27,7.27,0,0,0,4.37,1.2,7.89,7.89,0,0,0,4.86-1.36,4.14,4.14,0,0,0,1.82-3.43,3.67,3.67,0,0,0-1.06-2.68,6.5,6.5,0,0,0-3.23-1.61l-4.31-1a9.92,9.92,0,0,1-5.09-2.61,6.28,6.28,0,0,1-1.64-4.43,6.45,6.45,0,0,1,1.18-3.84,8,8,0,0,1,3.26-2.6,11.36,11.36,0,0,1,4.74-.94,9.35,9.35,0,0,1,5.8,1.64A9,9,0,0,1,736.79,149.17Z"/><rect class="cls-1" x="11" y="151" width="560" height="7" rx="3.5"/><circle class="cls-1" cx="295" cy="154" r="13"/></svg>