<svg id="Camada_1" data-name="Camada 1" xmlns="http://www.w3.org/2000/svg" viewBox="0 0 1920 1080"><defs><style>.cls-1{font-size:133.41px;font-family:Inter-Medium, Inter;font-weight:500;}.cls-2{letter-spacing:-0.04em;}.cls-3{letter-spacing:-0.09em;}.cls-4{font-size:48.36px;font-family:Inter-Light, Inter;font-weight:300;}</style></defs><title>Prancheta 1</title><text class="cls-1" transform="translate(279.8 75.9)"><tspan class="cls-2">D</tspan><tspan class="cls-3" x="91.44" y="0">AT</tspan><tspan x="248.54" y="0">AMOSH</tspan></text><path d="M876.59,131.76V105.39h3v4h.27a6.53,6.53,0,0,1,2.64-3.22,8,8,0,0,1,4.44-1.18,7.48,7.48,0,0,1,4.49,1.28,7.7,7.7,0,0,1,2.63,3.51h.22a7.37,7.37,0,0,1,2.92-3.49,8.8,8.8,0,0,1,4.9-1.3,7.5,7.5,0,0,1,5.8,2.31q2.13,2.31,2.13,6.74v17.67H907V114.09a6.32,6.32,0,0,0-1.59-4.69,5.78,5.78,0,0,0-4.21-1.56,5.85,5.85,0,0,0-4.65,1.86,6.83,6.83,0,0,0-1.63,4.7v17.36h-3.13V113.82a6.22,6.22,0,0,0-1.49-4.33,5.4,5.4,0,0,0-4.21-1.65,6.17,6.17,0,0,0-3.27.89,6.34,6.34,0,0,0-2.29,2.49,7.75,7.75,0,0,0-.83,3.64v16.9Z"/><path d="M918.12,131.76V105.39h3.07v26.37Zm.13-30,4.4-7.8h3.62l-5.27,7.8Z"/><path d="M938.79,132.31a9.57,9.57,0,0,1-5.68-1.72,11.25,11.25,0,0,1-3.81-4.79,19.45,19.45,0,0,1,0-14.29,11.24,11.24,0,0,1,3.82-4.78,9.77,9.77,0,0,1,5.72-1.7,8.4,8.4,0,0,1,4,.85,7.55,7.55,0,0,1,2.56,2.1,12.58,12.58,0,0,1,1.5,2.44h.27V96.59h3.07v35.17h-3v-4.89h-.36a11.92,11.92,0,0,1-1.52,2.46,7.9,7.9,0,0,1-2.58,2.12A8.47,8.47,0,0,1,938.79,132.31Zm.36-2.8a6.84,6.84,0,0,0,4.36-1.4,8.79,8.79,0,0,0,2.76-3.86,15.72,15.72,0,0,0,1-5.66,15.34,15.34,0,0,0-.94-5.59,8.59,8.59,0,0,0-2.75-3.81,7.66,7.66,0,0,0-8.84,0,8.92,8.92,0,0,0-2.74,3.87,15.07,15.07,0,0,0-.94,5.48,15.46,15.46,0,0,0,1,5.55,9,9,0,0,0,2.75,3.92A6.87,6.87,0,0,0,939.15,129.51Z"/><path d="M960.55,100.85a2.25,2.25,0,0,1-1.61-.64,2.12,2.12,0,0,1,0-3.11,2.36,2.36,0,0,1,3.23,0,2.12,2.12,0,0,1,0,3.11A2.26,2.26,0,0,1,960.55,100.85ZM959,131.76V105.39h3.08v26.37Z"/><path d="M977.53,132.36a10.08,10.08,0,0,1-4.36-.93,7.49,7.49,0,0,1-3.14-2.72,7.65,7.65,0,0,1-1.17-4.31,6.66,6.66,0,0,1,.74-3.3,6,6,0,0,1,2.09-2.2,12.08,12.08,0,0,1,3.21-1.36,29.8,29.8,0,0,1,4.09-.77l3.75-.48a6.89,6.89,0,0,0,2.35-.65,1.54,1.54,0,0,0,.8-1.45v-.61a5.62,5.62,0,0,0-1.6-4.25,6.35,6.35,0,0,0-4.61-1.56A7.93,7.93,0,0,0,975,109a6.86,6.86,0,0,0-2.51,3l-2.91-1a8.68,8.68,0,0,1,2.48-3.46,9.93,9.93,0,0,1,3.53-1.87,14.17,14.17,0,0,1,4-.57,13.57,13.57,0,0,1,3.15.39,9,9,0,0,1,3,1.37,7,7,0,0,1,2.28,2.69,9.55,9.55,0,0,1,.88,4.37v17.91h-3.06v-4.17h-.19a8.29,8.29,0,0,1-1.63,2.27,8.44,8.44,0,0,1-2.71,1.8A9.59,9.59,0,0,1,977.53,132.36Zm.41-2.8a8,8,0,0,0,4.23-1.08,7.43,7.43,0,0,0,2.75-2.87,8.18,8.18,0,0,0,1-4v-3.81a3.14,3.14,0,0,1-1.14.58,15.05,15.05,0,0,1-1.84.45c-.69.14-1.38.25-2.07.34l-1.85.24a16.82,16.82,0,0,0-3.81.86,5.49,5.49,0,0,0-2.42,1.6,4,4,0,0,0-.84,2.62,4.41,4.41,0,0,0,1.71,3.72A6.87,6.87,0,0,0,977.94,129.56Z"/><path d="M1014.79,111.17l-2.8.79a7.27,7.27,0,0,0-1.16-2.14,5.4,5.4,0,0,0-2-1.53,7,7,0,0,0-3-.57,7.23,7.23,0,0,0-4.39,1.27,3.9,3.9,0,0,0-1.72,3.28,3.52,3.52,0,0,0,1.18,2.76,8.53,8.53,0,0,0,3.63,1.67l4,1a9.87,9.87,0,0,1,5,2.56,6.13,6.13,0,0,1,1.66,4.4,6.61,6.61,0,0,1-1.24,4,8.12,8.12,0,0,1-3.44,2.72,12.36,12.36,0,0,1-5.11,1,10.93,10.93,0,0,1-6.37-1.74,7.87,7.87,0,0,1-3.21-5l2.94-.72a5.87,5.87,0,0,0,2.22,3.55,7.27,7.27,0,0,0,4.37,1.2,7.89,7.89,0,0,0,4.86-1.36,4.14,4.14,0,0,0,1.82-3.43,3.67,3.67,0,0,0-1.06-2.68,6.5,6.5,0,0,0-3.23-1.61l-4.31-1a9.92,9.92,0,0,1-5.09-2.61,6.28,6.28,0,0,1-1.64-4.43,6.45,6.45,0,0,1,1.18-3.84,8,8,0,0,1,3.26-2.6,11.36,11.36,0,0,1,4.74-.94,9.35,9.35,0,0,1,5.8,1.64A9,9,0,0,1,1014.79,111.17Z"/><rect x="290" y="111" width="552" height="7"/><text class="cls-1" transform="translate(1302.8 143.9)"><tspan class="cls-2">D</tspan><tspan class="cls-3" x="91.44" y="0">AT</tspan><tspan x="248.54" y="0">AMOSH</tspan></text><text class="cls-4" transform="translate(1883.56 199.76)">mídias</text><circle cx="573" cy="114" r="11"/><rect x="1311" y="181" width="552" height="7"/><circle cx="1587" cy="184" r="11"/><text class="cls-1" transform="translate(150.8 907.9)"><tspan class="cls-2">D</tspan><tspan class="cls-3" x="91.44" y="0">AT</tspan><tspan x="248.54" y="0">AMOSH</tspan></text><rect x="162" y="945" width="729" height="7" rx="3.5"/><circle cx="446" cy="948" r="13"/><text class="cls-1" transform="translate(1097.8 907.9)"><tspan class="cls-2">D</tspan><tspan class="cls-3" x="91.44" y="0">AT</tspan><tspan x="248.54" y="0">AMOSH</tspan></text><text class="cls-4" transform="translate(1692.56 963.76)">mídias</text><rect x="1109" y="945" width="560" height="7" rx="3.5"/><circle cx="1393" cy="948" r="13"/></svg>